<?xml version="1.0" encoding="UTF-8"?>
<svg id="Layer_1" data-name="Layer 1" xmlns="http://www.w3.org/2000/svg" viewBox="0 0 800 800">
  <defs>
    <style>
      .cls-1 {
        fill: #052f4a;
      }

      .cls-1, .cls-2, .cls-3 {
        stroke-width: 0px;
      }

      .cls-2 {
        fill: #00bdff;
      }

      .cls-3 {
        fill: #fff;
      }
    </style>
  </defs>
  <path class="cls-1" d="M370.86,452c-.11,1.79-.15,3.58-.11,5.37l23.94-53.37c-13.99,11.82-23.25,29.55-23.83,48ZM611.68,605.84l-18.06-40-114.05-252.68-15.92-35.26-35.75-79.21-24.7-54.71h-6.4l-28.55,63.26-36.7,81.3-101.31,224.44-27.02,59.86-35.03,77.6-2.52,5.58h115.21l23.62-51.72,2.69-5.88h179.22l26.31,57.6h121.61l-22.65-50.18ZM370.75,457.37l23.94-53.37,2.11-4.71,1,2.23,11.97,26.69,30.41,67.8h-86.76l17.33-38.64Z"/>
  <g>
    <path class="cls-1" d="M289.01,243.08l54.62-94.6,56.37-97.63,54.41,94.25,33.92,58.73c-66.31-12.92-135.91-2.65-199.32,39.24Z"/>
    <path class="cls-1" d="M781.35,711.36H18.65l92.55-160.3,60.61-104.97c-1.74,77.52,34.45,156.99,97.86,202.68,102.47,73.76,258.18,44.24,318.47-69.65,14.17-32.22,29.3-81.67,22.16-122.18-11.07-69.15-71.52-127.75-137.03-145.61-33.25-8.73-67.77-7.31-98.56,6.06l-8.8,3.69-8.08,4.95c-55.99,34.11-83.01,103.88-68.93,156.96,15.43,45.85,56.94,83.86,106.46,85.61,18.41-2.88,35.95-9.03,50.22-18.51,11.37-7.44,20.54-17.34,27.38-28.9,21.58-35.64-.72-84.27-40.16-97.33-23.13-7.71-49.05,25.38-42.01,52.36,3.68,4.02,7.32,6.71,11.41,2.65,1.57-1.44,2.78-3.79,3.97-6.1l6.99,2.09c-2.92,20.21-21.47,22.53-35.33,10.06-5.47-9.98-7.71-21.54-6.99-32.91,1.08-34.67,32.81-66.79,68.98-61.96,28.41,5.1,54.79,21.94,71.63,46.65,26.45,36.26,24.56,90.62-1.82,127.5-24.06,36.25-66.59,58.11-107.38,65.58-20.58,1.73-41.71-1.89-61.49-8.29-54.15-17.88-96.87-64.38-113.8-117.86-23.79-87.45,28.73-181.98,109.91-217.53l11.87-5.13,12.36-3.48c9.32-3.08,21.16-4.34,30.82-5.89,58.6-5.74,117.14,16.33,161.34,54.13,3.91,3.37,7.67,6.75,11.28,10.17l68.88,119.28,147.91,256.18Z"/>
    <path class="cls-3" d="M706.99,337.5l-6.26,3.93-.13.08c-33.44-43.23-75.63-79.81-123.95-105.47-3.18-1.55-10.69-5.37-13.73-6.86-2.94-1.38-10.91-4.8-14.03-6.22-59.81-25.02-127.56-31.71-189.9-12.13-74.86,22.96-138.76,80.14-168.59,152.7-46.96,110.07,4.2,253.53,113.95,303.96,99.34,47.04,230.94,10.39,282.66-88.97,10.84-24.98,19.46-52.33,22.66-79.78,9.01-65.63-30.77-128.76-84.92-163.14-41.4-27.12-95.21-37.8-142.41-20.32-5.25,1.87-11.24,4.62-16,6.5-4.36,2.58-9.11,5.59-13.4,8.33-41.94,28.3-68.97,78.77-66.94,129.58.36,7.86,1.54,15.67,3.51,23.26,6.48,19.02,17.27,36.61,31.44,50.88,19.55,19.93,46.3,33.32,74.43,34.25,11.48-1.85,23.91-5.14,34.85-10.14,16.71-7.35,31.41-19.26,41.03-34.86,6.64-10.19,10.09-22.3,9.61-34.47-.85-24.34-15.54-47.47-36.76-59.24-3.6-2.04-7.51-3.68-11.42-5.04-.55-.15-1.61-.45-2.16-.6-.68-.12-1.54-.27-2.21-.37-18.98-1.53-33.7,17.86-37.28,34.82-1.34,5.59-.97,13.07.14,17.71,6.62,7.68,10.69,4.64,14.55-3.35,0,0,.2-.38.2-.38l.41.12,6.99,2.09.43.13c-2.65,20.93-22.27,23.74-36.37,10.69-9.83-18.18-9.4-41.2-.28-59.57,9.08-18.4,26.84-33.02,47.41-36.03,10.26-1.75,20.66.41,30.4,3.68,4.85,1.67,9.66,3.53,14.24,5.87,23.05,11.34,42.01,30.9,52.76,54.22,8.44,18.82,10.91,40.02,8.2,60.39-8.03,63.38-67.99,106.55-127.66,116.99-21.39,1.79-42.93-1.96-63.19-8.71-2.66-1-8.75-3.1-11.23-4.3-1.83-.8-5.5-2.44-7.33-3.25-3.29-1.75-7.42-3.76-10.62-5.62,0,0-6.86-4.15-6.86-4.15-3.15-1.93-6.85-4.69-9.94-6.76-2.92-2.32-6.61-5.05-9.42-7.46-2.13-1.92-7-6.05-8.91-8.06-2.54-2.51-6.05-5.9-8.38-8.61-5.19-5.6-10.71-12.43-15.07-18.7,0,0-2.33-3.26-2.33-3.26l-2.16-3.38c-1.25-2.04-3.1-4.74-4.24-6.8-1.38-2.53-4.59-8.02-5.74-10.56-.89-1.8-2.62-5.41-3.51-7.21-1.42-3.46-3.29-7.63-4.57-11.12,0,0-2.66-7.59-2.66-7.59-.83-2.13-1.41-5.53-2.04-7.78-19.06-81.98,28.3-170.41,102.14-207.82,6.79-3.65,14.77-6.76,21.84-9.91,4.56-1.33,11.12-3.1,15.61-4.47,7.57-2.19,16.08-3.16,23.83-4.39,29.36-3.92,59.65-.06,87.7,9.13,30.64,10.1,59.17,26.83,83.12,48.41,24.14,21.29,45.46,46.48,59.71,75.48,29.92,58.75,22.21,128.21,1.33,188.59-12.46,29.41-29.96,56.9-52.15,79.95-98.17,104.21-273.09,102.02-375.5,5.06-43.43-40.71-74.28-94.53-90.07-151.77-45-163.32,66.16-331.46,226.01-374.24,154.02-42.48,312.34,45.15,379.2,186.05h0ZM706.7,337.41c-76.26-157.96-261.96-242.8-426.01-166.94C118.26,245.56,43.49,435.33,132.75,595.2c31.6,59.57,82.87,109.17,146.32,133.37,95.83,38.62,214.44,17.8,286.01-58.36,21.83-22.56,39.36-50.34,51.42-78.78,20.56-59.69,28.42-128.16-1.08-186.22-14.06-28.66-35.11-53.55-58.94-74.61-23.63-21.35-51.79-37.88-82.04-47.89-27.64-9.08-57.45-12.92-86.37-9.1-7.6,1.26-16.16,2.17-23.49,4.3-4.01,1.17-11.87,3.43-15.25,4.33-7.06,3.08-14.9,6.27-21.68,9.82-72.79,36.84-119.72,123.95-101.07,204.81.59,2.2,1.2,5.5,1.98,7.63.87,2.59,2.97,8.69,4.05,11.13.76,1.81,2.28,5.5,3.04,7.31.86,1.77,2.59,5.36,3.45,7.12,1.1,2.56,4.33,7.93,5.65,10.44,1.06,2.09,3,4.68,4.18,6.73,0,0,2.12,3.34,2.12,3.34l2.3,3.22c2.52,3.79,6.73,9.01,9.62,12.58,2.32,2.84,5.46,6.1,7.89,8.87,2.64,2.55,5.76,5.88,8.48,8.31,2.01,1.86,6.87,6.13,9,7.75,1.55,1.21,4.68,3.68,6.23,4.89,3.04,2.05,6.69,4.79,9.81,6.7,2.36,1.42,7.81,4.85,10.24,6.01,1.74.91,5.27,2.76,7.01,3.67,1.8.8,5.43,2.42,7.23,3.22,2.45,1.25,8.47,3.23,11.07,4.26,19.81,6.71,41.64,10.43,62.19,8.75,58.98-10.2,118.38-52.68,126.44-115.3,2.71-20.08.33-41.02-7.96-59.58-12.68-27.72-37.11-49.87-66.07-59.47-4.81-1.63-9.76-2.83-14.73-3.8-15.1-2.1-30.69,2.72-42.61,12.08-24.83,18.93-33.32,54.66-18.96,81.77,13.28,12.09,31.69,10.06,34.46-9.74,0,0,.36.57.36.57l-6.98-2.09.6-.26c-4.12,8.7-9.2,11.78-16.29,3.47-1.57-6.05-1.53-12.43-.28-18.51,3.55-18.07,21.46-40.17,41.8-34.86,28.06,8.59,48.88,36.2,49.92,65.47.92,19.05-8.14,36.04-21.01,49.51-17.15,17.86-41.36,27.21-65.43,31.03-46.69-1.49-87.17-36.11-104.17-78.37-4.23-9.75-5.78-20.46-6.39-31-2.18-51.3,24.99-102.29,67.26-130.97,4.33-2.74,9.11-5.83,13.48-8.44,4.31-1.8,8.59-3.64,12.95-5.4,30.48-12.22,64.95-12.78,96.45-4.13,71.17,20.52,132.86,84.46,138.15,160.15,1.67,37.53-9.18,74.52-23.81,108.71-59.83,114.43-219.24,144.75-321.51,69.27-89.29-65.45-123.26-195.53-75.32-295.7,32.13-69.37,95.26-123.18,168.49-144.79,62.34-18.54,128.88-11.64,188.37,13.48,3.1,1.39,11.01,4.9,14.05,6.29,3.17,1.52,10.55,5.38,13.75,6.93,47.96,25.71,91.23,63.11,123.43,106,0,0,6.15-3.73,6.15-3.73h0Z"/>
    <g>
      <path class="cls-2" d="M706.85,337.46l-6.21,3.83c-53.97-70.48-130.65-121.55-212.31-137.46-66.31-12.92-135.91-2.65-199.32,39.24-.65.43-1.31.87-1.96,1.31-49.53,33.34-88.23,83.65-105.55,140.67-6.07,19.75-9.24,40.31-9.7,61.03-1.74,77.52,34.45,156.99,97.86,202.68,102.47,73.76,258.18,44.24,318.47-69.65,14.17-32.22,29.3-81.67,22.16-122.18-11.07-69.15-71.52-127.75-137.03-145.61-33.25-8.73-67.77-7.31-98.56,6.06l-8.8,3.69-8.08,4.95c-55.99,34.11-83.01,103.88-68.93,156.96,15.43,45.85,56.94,83.86,106.46,85.61,18.41-2.88,35.95-9.03,50.22-18.51,11.37-7.44,20.54-17.34,27.38-28.9,21.58-35.64-.72-84.27-40.16-97.33-23.13-7.71-49.05,25.38-42.01,52.36,3.68,4.02,7.32,6.71,11.41,2.65,1.57-1.44,2.78-3.79,3.97-6.1l6.99,2.09c-2.92,20.21-21.47,22.53-35.33,10.06-5.47-9.98-7.71-21.54-6.99-32.91,1.08-34.67,32.81-66.79,68.98-61.96,28.41,5.1,54.79,21.94,71.63,46.65,26.45,36.26,24.56,90.62-1.82,127.5-24.06,36.25-66.59,58.11-107.38,65.58-20.58,1.73-41.71-1.89-61.49-8.29-54.15-17.88-96.87-64.38-113.8-117.86-23.79-87.45,28.73-181.98,109.91-217.53l11.87-5.13,12.36-3.48c9.32-3.08,21.16-4.34,30.82-5.89,58.6-5.74,117.14,16.33,161.34,54.13,3.91,3.37,7.67,6.75,11.28,10.17,39.25,37,61.23,76.28,68.88,119.28,7.39,41.65,1.36,86.8-15.44,136.76-22.54,53.4-58.61,93.22-101.55,119.42-82.48,50.34-190.32,50.43-276.37,0-31.95-18.71-60.89-44.4-84.42-77.06-19.66-27.45-34.31-55.36-44.45-83.25-66.71-183.3,60.77-365.22,232.43-402.58,35.47-7.72,72.85-9.26,110.78-3.37,42.98,6.67,86.7,22.92,129.22,50.56,53.98,35.78,96.32,85.9,123.21,141.79Z"/>
      <path class="cls-3" d="M706.99,337.5l-6.26,3.93s-.13.08-.13.08c-33.44-43.23-75.63-79.81-123.95-105.47-3.18-1.55-10.69-5.37-13.73-6.86-2.94-1.38-10.91-4.8-14.03-6.22-59.81-25.02-127.56-31.71-189.9-12.13-74.86,22.96-138.76,80.14-168.59,152.7-46.96,110.07,4.2,253.53,113.95,303.96,99.34,47.04,230.94,10.39,282.66-88.97,10.84-24.98,19.46-52.33,22.66-79.78,9.01-65.63-30.77-128.76-84.92-163.14-41.4-27.12-95.21-37.8-142.41-20.32-5.25,1.87-11.24,4.62-16,6.5-4.36,2.58-9.11,5.59-13.4,8.33-41.94,28.3-68.97,78.77-66.94,129.58.36,7.86,1.54,15.67,3.51,23.26,6.48,19.02,17.27,36.61,31.44,50.88,19.55,19.93,46.3,33.32,74.43,34.25,11.48-1.85,23.91-5.14,34.85-10.14,16.71-7.35,31.41-19.26,41.03-34.86,6.64-10.19,10.09-22.3,9.61-34.47-.85-24.34-15.54-47.47-36.76-59.24-3.6-2.04-7.51-3.68-11.42-5.04-.55-.15-1.61-.45-2.16-.6-.68-.12-1.54-.27-2.21-.37-18.98-1.53-33.7,17.86-37.28,34.82-1.34,5.59-.97,13.07.14,17.71,6.62,7.68,10.69,4.64,14.55-3.35,0,0,.2-.38.2-.38,0,0,.41.12.41.12l6.99,2.09.43.13c-2.65,20.93-22.27,23.74-36.37,10.69-9.83-18.18-9.4-41.2-.28-59.57,9.08-18.4,26.84-33.02,47.41-36.03,10.26-1.75,20.66.41,30.4,3.68,4.85,1.67,9.66,3.53,14.24,5.87,23.05,11.34,42.01,30.9,52.76,54.22,8.44,18.82,10.91,40.02,8.2,60.39-8.03,63.38-67.99,106.55-127.66,116.99-21.39,1.79-42.93-1.96-63.19-8.71-2.66-1-8.75-3.1-11.23-4.3-1.83-.8-5.5-2.44-7.33-3.25-3.29-1.75-7.42-3.76-10.62-5.62,0,0-6.86-4.15-6.86-4.15-3.15-1.93-6.85-4.69-9.94-6.76-2.92-2.32-6.61-5.05-9.42-7.46-2.13-1.92-7-6.05-8.91-8.06-2.54-2.51-6.05-5.9-8.38-8.61-5.19-5.6-10.71-12.43-15.07-18.7,0,0-2.33-3.26-2.33-3.26,0,0-2.16-3.38-2.16-3.38-1.25-2.04-3.1-4.74-4.24-6.8-1.38-2.53-4.59-8.02-5.74-10.56-.89-1.8-2.62-5.41-3.51-7.21-1.42-3.46-3.29-7.63-4.57-11.12,0,0-2.66-7.59-2.66-7.59-.83-2.13-1.41-5.53-2.04-7.78-19.06-81.98,28.3-170.41,102.14-207.82,6.79-3.65,14.77-6.76,21.84-9.91,4.56-1.33,11.12-3.1,15.61-4.47,7.57-2.19,16.08-3.16,23.83-4.39,29.36-3.92,59.65-.06,87.7,9.13,30.64,10.1,59.17,26.83,83.12,48.41,24.14,21.29,45.46,46.48,59.71,75.48,29.92,58.75,22.21,128.21,1.33,188.59-12.46,29.41-29.96,56.9-52.15,79.95-98.17,104.21-273.09,102.02-375.5,5.06-43.43-40.71-74.28-94.53-90.07-151.77-45-163.32,66.16-331.46,226.01-374.24,154.02-42.48,312.34,45.15,379.2,186.05h0ZM706.7,337.41c-76.26-157.96-261.96-242.8-426.01-166.94C118.26,245.56,43.49,435.33,132.75,595.2c31.6,59.57,82.87,109.17,146.32,133.37,95.83,38.62,214.44,17.8,286.01-58.36,21.83-22.56,39.36-50.34,51.42-78.78,20.56-59.69,28.42-128.16-1.08-186.22-14.06-28.66-35.11-53.55-58.94-74.61-23.63-21.35-51.79-37.88-82.04-47.89-27.64-9.08-57.45-12.92-86.37-9.1-7.6,1.26-16.16,2.17-23.49,4.3-4.01,1.17-11.87,3.43-15.25,4.33-7.06,3.08-14.9,6.27-21.68,9.82-72.79,36.84-119.72,123.95-101.07,204.81.59,2.2,1.2,5.5,1.98,7.63.87,2.59,2.97,8.69,4.05,11.13.76,1.81,2.28,5.5,3.04,7.31.86,1.77,2.59,5.36,3.45,7.12,1.1,2.56,4.33,7.93,5.65,10.44,1.06,2.09,3,4.68,4.18,6.73,0,0,2.12,3.34,2.12,3.34l2.3,3.22c2.52,3.79,6.73,9.01,9.62,12.58,2.32,2.84,5.46,6.1,7.89,8.87,2.64,2.55,5.76,5.88,8.48,8.31,2.01,1.86,6.87,6.13,9,7.75,1.55,1.21,4.68,3.68,6.23,4.89,3.04,2.05,6.69,4.79,9.81,6.7,2.36,1.42,7.81,4.85,10.24,6.01,1.74.91,5.27,2.76,7.01,3.67,1.8.8,5.43,2.42,7.23,3.22,2.45,1.25,8.47,3.23,11.07,4.26,19.81,6.71,41.64,10.43,62.19,8.75,58.98-10.2,118.38-52.68,126.44-115.3,2.71-20.08.33-41.02-7.96-59.58-12.68-27.72-37.11-49.87-66.07-59.47-4.81-1.63-9.76-2.83-14.73-3.8-15.1-2.1-30.69,2.72-42.61,12.08-24.83,18.93-33.32,54.66-18.96,81.77,13.28,12.09,31.69,10.06,34.46-9.74,0,0,.36.57.36.57l-6.98-2.09s.6-.26.6-.26c-4.12,8.7-9.2,11.78-16.29,3.47-1.57-6.05-1.53-12.43-.28-18.51,3.55-18.07,21.46-40.17,41.8-34.86,28.06,8.59,48.88,36.2,49.92,65.47.92,19.05-8.14,36.04-21.01,49.51-17.15,17.86-41.36,27.21-65.43,31.03-46.69-1.49-87.17-36.11-104.17-78.37-4.23-9.75-5.78-20.46-6.39-31-2.18-51.3,24.99-102.29,67.26-130.97,4.33-2.74,9.11-5.83,13.48-8.44,4.31-1.8,8.59-3.64,12.95-5.4,30.48-12.22,64.95-12.78,96.45-4.13,71.17,20.52,132.86,84.46,138.15,160.15,1.67,37.53-9.18,74.52-23.81,108.71-59.83,114.43-219.24,144.75-321.51,69.27-89.29-65.45-123.26-195.53-75.32-295.7,32.13-69.37,95.26-123.18,168.49-144.79,62.34-18.54,128.88-11.64,188.37,13.48,3.1,1.39,11.01,4.9,14.05,6.29,3.17,1.52,10.55,5.38,13.75,6.93,47.96,25.71,91.23,63.11,123.43,106,0,0,6.15-3.73,6.15-3.73h0Z"/>
    </g>
  </g>
</svg>